<svg aria-hidden="true" style="position:absolute;width:0;height:0;overflow:hidden" xmlns="http://www.w3.org/2000/svg">
  <defs>
    <symbol id="icon-clock1" viewBox="0 0 34 32">
      <path d="M17 0C8.178 0 1 7.178 1 16s7.178 16 16 16 16-7.178 16-16S25.822 0 17 0zm0 30C9.28 30 3 23.72 3 16S9.28 2 17 2s14 6.28 14 14-6.28 14-14 14z"/>
      <path d="M18 6.001h-2v10.414l6.293 6.293 1.414-1.414L18 15.587V6.001z"/>
    </symbol>
    <symbol id="icon-placeholder2" viewBox="0 0 34 32">
      <path d="M17 0C10.797 0 5.75 5.047 5.75 11.25c0 2.096.581 4.141 1.679 5.916l8.93 14.391a.936.936 0 0 0 .797.443h.007a.938.938 0 0 0 .797-.456l8.703-14.53a11.238 11.238 0 0 0 1.587-5.764C28.25 5.047 23.203 0 17 0zm8.054 16.051-7.912 13.21-8.119-13.084a9.36 9.36 0 0 1-1.41-4.928c0-5.169 4.218-9.387 9.387-9.387s9.381 4.218 9.381 9.387a9.367 9.367 0 0 1-1.327 4.801z"/>
      <path d="M17 5.625a5.63 5.63 0 0 0-5.625 5.625A5.617 5.617 0 0 0 17 16.875c3.181 0 5.625-2.577 5.625-5.625A5.63 5.63 0 0 0 17 5.625zm0 9.387a3.765 3.765 0 0 1-3.762-3.762c0-2.068 1.695-3.763 3.762-3.763s3.756 1.695 3.756 3.763c0 2.043-1.645 3.762-3.756 3.762z"/>
    </symbol>
  </defs>
</svg>
