<svg aria-hidden="true" style="position:absolute;width:0;height:0;overflow:hidden" xmlns="http://www.w3.org/2000/svg">
  <defs>
    <symbol id="icon-courses" viewBox="0 0 32 32">
      <path fill="#086cf9" style="fill:var(--color1, #086cf9)" d="M29.438 16.426a2.816 2.816 0 0 0 2.563-2.801v-8.75a2.816 2.816 0 0 0-2.813-2.813h-9.313a2.816 2.816 0 0 0-2.813 2.813v3.687H5.375a2.816 2.816 0 0 0-2.813 2.813v11.25c0 .329.057.644.161.938H1.687a1.69 1.69 0 0 0-1.688 1.688 4.693 4.693 0 0 0 4.688 4.688h22.625A4.693 4.693 0 0 0 32 25.251a1.69 1.69 0 0 0-1.688-1.688h-1.036a2.8 2.8 0 0 0 .161-.938v-6.199zm-10.5-11.551a.94.94 0 0 1 .938-.938h9.313c.517 0 .937.421.937.938v8.75a.94.94 0 0 1-.937.938h-8.688a.93.93 0 0 0-.497.143l-1.89 1.181.785-2.617a.942.942 0 0 0 .04-.269V4.876zm8.375 23.188H4.688a2.816 2.816 0 0 1-2.806-2.625H30.12a2.816 2.816 0 0 1-2.806 2.625zM8.938 16.5c0-.586.477-1.063 1.063-1.063s1.063.477 1.063 1.063-.477 1.063-1.063 1.063-1.063-.477-1.063-1.063zm-.5 4c0-.566.73-1.063 1.563-1.063.446 0 .876.139 1.18.382.143.114.383.355.383.68v3.063H8.439v-3.063zm5 3.063V20.5c0-.811-.396-1.592-1.086-2.145l-.047-.036a2.925 2.925 0 0 0 .634-1.819c0-1.62-1.318-2.938-2.938-2.938S7.063 14.88 7.063 16.5c0 .687.238 1.32.635 1.821-.697.538-1.135 1.316-1.135 2.179v3.063H5.376a.94.94 0 0 1-.938-.938v-11.25a.94.94 0 0 1 .938-.938h11.687v2.425l-.746 2.485a1.86 1.86 0 0 0 .658 2.029c.337.257.736.388 1.136.388.343 0 .687-.096.995-.288l1.662-1.039h6.794v6.187a.94.94 0 0 1-.938.938H13.437z"/>
      <path fill="#086cf9" style="fill:var(--color1, #086cf9)" d="M25.5 10.563h-2a.938.938 0 0 0 0 1.876h2a.938.938 0 0 0 0-1.876zM22 7.938h5a.938.938 0 0 0 0-1.876h-5a.938.938 0 0 0 0 1.876z"/>
    </symbol>
    <symbol id="icon-instructor" viewBox="0 0 32 32">
      <path fill="#086cf9" style="fill:var(--color1, #086cf9)" d="M31.375 1.252H.625A.625.625 0 0 0 0 1.877v28.246c0 .345.28.625.625.625h6.063a.625.625 0 0 0 0-1.25H1.25V6.999a.664.664 0 0 0 .063.003H30.75v22.496h-1.112v-2.7c0-1.22-.778-2.298-1.936-2.682l-2.206-.731c.269-.317.489-.677.647-1.068H28c.345 0 .625-.28.625-.625v-1.763c0-3.374-2.745-6.119-6.119-6.119s-6.119 2.745-6.119 6.119v1.763c0 .345.28.625.625.625h1.857c.159.391.378.751.647 1.068l-2.206.731a2.82 2.82 0 0 0-1.936 2.682v2.7h-2.907a.625.625 0 0 0 0 1.25h18.907c.345 0 .625-.28.625-.625V1.877a.625.625 0 0 0-.625-.625zm-3.999 19.815h-.952c.004-.073.006-.146.006-.219v-.877h.946v1.097zm-9.739 0V19.97h.946v.878c0 .074.002.147.006.219h-.952zm1.157-2.347h-1.005c.539-2.102 2.45-3.66 4.717-3.66s4.178 1.558 4.717 3.66h-1.005c-.528-1.543-1.992-2.656-3.712-2.656s-3.184 1.113-3.712 2.656zm3.713 2.053a.625.625 0 0 0-.625.625v.646c0 .345.28.625.625.625h1.956a2.73 2.73 0 0 1-.474.404.611.611 0 0 0-.116.073 2.66 2.66 0 0 1-2.731 0 .611.611 0 0 0-.116-.073 2.674 2.674 0 0 1-1.192-2.224v-.861c0-1.474 1.199-2.674 2.674-2.674s2.674 1.199 2.674 2.674v.861c0 .196-.022.386-.062.57h-1.987v-.021a.625.625 0 0 0-.625-.625zm5.881 8.725H16.625v-2.7c0-.68.434-1.281 1.08-1.495l2.972-.985a3.905 3.905 0 0 0 3.66 0l2.972.985c.646.214 1.08.815 1.08 1.495v2.7zM30.75 5.752H1.313a.664.664 0 0 0-.063.003V2.502h29.5v3.25z"/>
      <path fill="#086cf9" style="fill:var(--color1, #086cf9)" d="M10.097 29.681a.625.625 0 1 0-.884.884.625.625 0 0 0 .884-.884zM28 3.502H13.879a.625.625 0 0 0 0 1.25H28a.625.625 0 0 0 0-1.25zM6.942 3.685a.63.63 0 0 0-.884 0 .63.63 0 0 0 0 .884.63.63 0 0 0 .884 0 .63.63 0 0 0 0-.884zM4.442 3.685a.63.63 0 0 0-.884 0 .63.63 0 0 0 0 .884.63.63 0 0 0 .884 0 .63.63 0 0 0 0-.884zM9.442 3.685a.63.63 0 0 0-.884 0 .63.63 0 0 0 0 .884.63.63 0 0 0 .884 0 .63.63 0 0 0 0-.884zM13.397 8.627H5.915a2.542 2.542 0 0 0-2.539 2.539v5.171c0 1.4 1.139 2.539 2.539 2.539h7.482c1.4 0 2.539-1.139 2.539-2.539v-5.171c0-1.4-1.139-2.539-2.539-2.539zm0 9H5.915a1.29 1.29 0 0 1-1.289-1.289v-5.171a1.29 1.29 0 0 1 1.289-1.289h7.482a1.29 1.29 0 0 1 1.289 1.289v5.171a1.29 1.29 0 0 1-1.289 1.289z"/>
      <path fill="#086cf9" style="fill:var(--color1, #086cf9)" d="m11.523 12.702-2.389-1.531a1.248 1.248 0 0 0-1.921 1.051v3.063a1.249 1.249 0 0 0 1.921 1.051l2.389-1.531c.36-.231.574-.623.574-1.05s-.215-.82-.574-1.05zm-3.06 2.577v-3.054l2.382 1.527-2.382 1.527zM8.593 23.627H4a.625.625 0 0 0 0 1.25h4.593a.625.625 0 0 0 0-1.25zM13.176 23.627h-1.732a.625.625 0 0 0 0 1.25h1.732a.625.625 0 0 0 0-1.25zM10.587 20.627H4a.625.625 0 0 0 0 1.25h6.587a.625.625 0 0 0 0-1.25zM13.641 20.81a.63.63 0 0 0-.884 0 .63.63 0 0 0 0 .884.63.63 0 0 0 .884 0 .63.63 0 0 0 0-.884zM13.175 26.627H4a.625.625 0 0 0 0 1.25h9.175a.625.625 0 0 0 0-1.25z"/>
    </symbol>
    <symbol id="icon-stories" viewBox="0 0 32 32">
      <path fill="#086cf9" style="fill:var(--color1, #086cf9)" d="m9.54 11.247 1.992 1.992 4.469-4.402v1.826h1.882V5.648h-5.015V7.53h1.777l-3.103 3.057L9.54 8.586l-8.007 8.007 1.331 1.331 6.676-6.676zM5.647 32h3.765V20.706H5.647V32zM11.294 32h3.765V18.823h-3.765V32zM32 9.412l-3.529-4.706L32 0H19.765v16.941h-2.824V32h7.529V16.941h-2.823V9.412H32zM3.765 22.588H0V32h3.765v-9.412z"/>
    </symbol>
  </defs>
</svg>
