<svg aria-hidden="true" style="position:absolute;width:0;height:0;overflow:hidden" xmlns="http://www.w3.org/2000/svg">
  <defs>
    <symbol id="icon-like2" viewBox="0 0 32 32">
      <path fill="#086cf9" style="fill:var(--color1, #086cf9)" d="M23.941 15.811c-.126-.183-3.154-4.477-7.941-4.477-4.107 0-7.768 4.269-7.921 4.451a.334.334 0 0 0 0 .431c.154.182 3.814 4.451 7.921 4.451s7.767-4.269 7.921-4.451a.333.333 0 0 0 .019-.405zM16 20c-3.293 0-6.423-3.14-7.219-4 .794-.861 3.921-4 7.219-4 3.853 0 6.572 3.135 7.236 3.982C22.469 16.815 19.321 20 16 20z"/>
      <path fill="#086cf9" style="fill:var(--color1, #086cf9)" d="M16 13.334c-1.471 0-2.667 1.196-2.667 2.667s1.196 2.667 2.667 2.667c1.471 0 2.667-1.196 2.667-2.667S17.471 13.334 16 13.334zM16 18c-1.103 0-2-.897-2-2s.897-2 2-2 2 .897 2 2-.897 2-2 2z"/>
      <path fill="none" stroke="#c8c8c8" stroke-width=".6" style="stroke:var(--color2, #c8c8c8)" d="M31.7 16c0 8.671-7.029 15.7-15.7 15.7S.3 24.671.3 16 7.329.3 16 .3 31.7 7.329 31.7 16z"/>
    </symbol>
    <symbol id="icon-like3" viewBox="0 0 32 32">
      <path fill="#086cf9" style="fill:var(--color1, #086cf9)" d="M23.977 14.164a.469.469 0 0 0-.378-.319l-4.96-.721-2.218-4.495a.468.468 0 0 0-.84 0l-2.218 4.495-4.96.721a.467.467 0 0 0-.259.799l3.589 3.499-.847 4.94a.471.471 0 0 0 .681.494l4.436-2.332 4.436 2.332a.469.469 0 0 0 .68-.495l-.847-4.94 3.589-3.498a.47.47 0 0 0 .119-.481zm-4.539 3.48a.47.47 0 0 0-.135.415l.728 4.247-3.814-2.005a.467.467 0 0 0-.436 0l-3.814 2.005.728-4.247a.468.468 0 0 0-.135-.415l-3.085-3.008 4.264-.62a.468.468 0 0 0 .353-.256l1.907-3.864 1.907 3.864c.068.138.2.234.353.256l4.264.62-3.086 3.008z"/>
      <path fill="none" stroke="#c8c8c8" stroke-width=".6" style="stroke:var(--color2, #c8c8c8)" d="M31.7 16c0 8.671-7.029 15.7-15.7 15.7S.3 24.671.3 16 7.329.3 16 .3 31.7 7.329 31.7 16z"/>
    </symbol>
    <symbol id="icon-like1" viewBox="0 0 32 32">
      <path fill="none" stroke="#c8c8c8" stroke-width=".6" style="stroke:var(--color2, #c8c8c8)" d="M31.7 16c0 8.671-7.029 15.7-15.7 15.7S.3 24.671.3 16 7.329.3 16 .3 31.7 7.329 31.7 16z"/>
      <path fill="#086cf9" style="fill:var(--color1, #086cf9)" d="M16 16.02c-4.216 0-7.647 3.43-7.647 7.647a.332.332 0 0 0 .664 0c0-3.85 3.132-6.982 6.982-6.982s6.982 3.132 6.982 6.982a.332.332 0 0 0 .664 0c0-4.217-3.43-7.647-7.647-7.647zM16 8c-2.016 0-3.657 1.64-3.657 3.657s1.641 3.657 3.657 3.657 3.657-1.64 3.657-3.657S18.016 8 16 8zm0 6.649c-1.65 0-2.992-1.343-2.992-2.992S14.35 8.665 16 8.665s2.992 1.343 2.992 2.992-1.343 2.992-2.992 2.992z"/>
    </symbol>
  </defs>
</svg>
