<svg aria-hidden="true" style="position:absolute;width:0;height:0;overflow:hidden" xmlns="http://www.w3.org/2000/svg">
  <defs>
    <symbol id="icon-Vector1" viewBox="0 0 35 32">
      <path fill="#086cf9" style="fill:var(--color1, #086cf9)" d="M33.199 2.115H24.51A2.538 2.538 0 0 0 22.027.088h-9.459a2.539 2.539 0 0 0-2.483 2.027H1.396C.626 2.115 0 2.741 0 3.511v21.867c0 .77.626 1.396 1.396 1.396h12.163l-.684 2.1h-1.42c-.97 0-1.76.789-1.76 1.76 0 .706.575 1.281 1.281 1.281h12.641c.706 0 1.281-.575 1.281-1.281 0-.97-.79-1.76-1.76-1.76h-1.42l-.684-2.1h12.163c.77 0 1.396-.626 1.396-1.396V3.511c0-.769-.626-1.396-1.396-1.396zM19.323 1.101h2.704c.838 0 1.52.682 1.52 1.52s-.682 1.52-1.52 1.52h-2.704c.319-.424.508-.95.508-1.52s-.189-1.097-.508-1.52zm-2.026 0c.838 0 1.52.682 1.52 1.52s-.682 1.52-1.52 1.52-1.52-.682-1.52-1.52.682-1.52 1.52-1.52zm-4.729 0h2.704c-.319.424-.508.95-.508 1.52s.189 1.096.508 1.52h-2.704c-.838 0-1.52-.682-1.52-1.52s.682-1.52 1.52-1.52zm10.571 28.786c.412 0 .746.335.746.746 0 .147-.12.267-.267.267H10.977a.268.268 0 0 1-.267-.267c0-.411.335-.746.746-.746h3.565a.507.507 0 0 0 0-1.014h-1.079l.684-2.1h5.345l.684 2.1h-3.294a.507.507 0 0 0 0 1.014h5.78zM33.581 6.168H10.203a.507.507 0 0 0 0 1.014h23.378v14.524h-3.834a.507.507 0 0 0 0 1.014h3.834v2.658a.382.382 0 0 1-.382.382H1.396a.382.382 0 0 1-.382-.382V22.72h26.402a.507.507 0 0 0 0-1.014h-1.937a3.312 3.312 0 0 0-2.394-2.142l-.011-.002-3.842-.779a4.52 4.52 0 0 1-.023-.954c1.347-1.126 2.002-2.124 2.002-3.046 0-.1-.004-.198-.013-.299-.022-.221-.034-1.237-.03-2.473.003-1.007-.386-1.954-1.097-2.667s-1.659-1.107-2.667-1.108h-.001c-1.008 0-1.955.393-2.667 1.107s-1.101 1.661-1.097 2.668c.004 1.236-.008 2.254-.03 2.48-.008.092-.012.19-.012.292 0 .921.654 1.917 1.995 3.039.025.322.016.627-.027.944l-3.911.796-.011.002a3.314 3.314 0 0 0-2.393 2.143H1.012V7.183h6.87a.507.507 0 0 0 0-1.014h-6.87V3.511c0-.211.171-.382.382-.382h8.689a2.538 2.538 0 0 0 2.483 2.027h9.459a2.539 2.539 0 0 0 2.483-2.027h8.689c.211 0 .382.171.382.382v2.658zm-18.927 5.838c-.002-.735.282-1.428.802-1.949s1.212-.809 1.949-.809c.737 0 1.429.288 1.949.809s.804 1.213.801 1.948c-.004 1.039.004 2.262.034 2.569.006.066.008.135.008.207 0 .609-.64 1.462-1.802 2.403-.278.226-.628.35-.988.35h-.003c-.363 0-.712-.124-.992-.352-1.161-.939-1.8-1.792-1.8-2.401 0-.072.003-.141.008-.198.031-.314.038-1.538.035-2.577zm3.592 7.047-.076.081c-.222.236-.492.366-.763.366h-.004c-.269 0-.54-.13-.763-.368l-.089-.095c.033-.207.053-.41.063-.613.253.081.518.124.785.124h.01c.265 0 .526-.041.776-.12.008.209.028.416.061.625zm-2.419.693.074.08c.416.443.949.687 1.499.687h.01c.552 0 1.084-.244 1.499-.685l.061-.066 3.897.791c.655.15 1.201.578 1.509 1.153H10.354a2.297 2.297 0 0 1 1.509-1.153l3.964-.806z"/>
    </symbol>
    <symbol id="icon-Vector2" viewBox="0 0 32 32">
      <path fill="#086cf9" style="fill:var(--color1, #086cf9)" d="M22.213 32.003a1.606 1.606 0 0 0 1.546-1.184l1.474-5.505 5.584-1.493a1.602 1.602 0 0 0 1.128-1.958L29.05 11.072l.229-.853a1.6 1.6 0 0 0-.965-1.898L27.01 3.455a1.61 1.61 0 0 0-1.959-1.132l-9.523 2.554-7.985-2.141a1.569 1.569 0 0 0-.99.053L4.558.798a2.666 2.666 0 1 0-3.77 3.77l3.636 3.636L.068 24.466a1.603 1.603 0 0 0 1.128 1.961l20.602 5.52c.135.037.275.056.415.055zm8.701-9.864a.534.534 0 0 1-.373.652l-4.987 1.333 2.944-10.989 2.417 9.005zM25.325 3.355a.537.537 0 0 1 .656.379l1.137 4.249-9.529-2.553 7.736-2.075zm-9.171 12.812-2.692-.897 1.795-1.796.897 2.692v.002zm-2.17-2.926L9.46 8.716a.534.534 0 0 0-.754.754l4.524 4.523-.754.755-7.541-7.541.754-.754 1.508 1.508a.533.533 0 0 0 .754-.754L6.443 5.699l.754-.754 7.54 7.541-.754.754zM3.428 5.7 5.69 3.438l.754.754-2.262 2.262-.754-.754zM1.075 2.684a1.6 1.6 0 0 1 2.73-1.131l1.131 1.131-2.262 2.262-1.131-1.131a1.587 1.587 0 0 1-.468-1.131zm.024 22.062 4.197-15.67 6.803 6.803a.533.533 0 0 0 .196.121c.004 0 .007.006.012.007l3.512 1.173a1.064 1.064 0 0 0 .906-.114l6.131 1.646a.531.531 0 0 0 .667-.445.533.533 0 0 0-.391-.584l-5.918-1.589a1.103 1.103 0 0 0-.049-.267l-1.173-3.512c0-.005-.006-.008-.008-.013a.52.52 0 0 0-.121-.195L7.622 3.863l20.245 5.423a.531.531 0 0 1 .377.654l-5.517 20.599a.532.532 0 0 1-.654.378L1.474 25.399a.536.536 0 0 1-.377-.653z"/>
    </symbol>
    <symbol id="icon-Vector3" viewBox="0 0 32 32">
      <path fill="#086cf9" style="fill:var(--color1, #086cf9)" d="M9.854 6.414a.5.5 0 0 0-.501.501c0 .608-.495 1.102-1.102 1.102s-1.102-.495-1.102-1.102.494-1.102 1.102-1.102a.5.5 0 1 0 0-1.002c-1.16 0-2.104.944-2.104 2.104s.944 2.104 2.104 2.104c1.16 0 2.104-.944 2.104-2.104a.5.5 0 0 0-.501-.501zM9.854 12.292a.5.5 0 0 0-.501.501c0 .608-.495 1.102-1.102 1.102s-1.102-.494-1.102-1.102c0-.608.494-1.102 1.102-1.102a.5.5 0 1 0 0-1.002c-1.16 0-2.104.944-2.104 2.104s.944 2.104 2.104 2.104c1.16 0 2.104-.944 2.104-2.104a.5.5 0 0 0-.501-.501zM15.733 13.361h-3.741a.5.5 0 1 0 0 1.002h3.741a.5.5 0 1 0 0-1.002zM15.733 11.223h-3.741a.5.5 0 1 0 0 1.002h3.741a.5.5 0 1 0 0-1.002zM14.664 19.24h-2.672a.5.5 0 1 0 0 1.002h2.672a.5.5 0 1 0 0-1.002zM15.733 17.102h-3.741a.5.5 0 1 0 0 1.002h3.741a.5.5 0 1 0 0-1.002zM20.543 7.482h-8.551a.5.5 0 1 0 0 1.002h8.551a.5.5 0 1 0 0-1.002zM18.405 5.345h-6.413a.5.5 0 1 0 0 1.002h6.413a.5.5 0 1 0 0-1.002zM9.854 18.171a.5.5 0 0 0-.501.501c0 .608-.495 1.102-1.102 1.102s-1.102-.495-1.102-1.102.494-1.102 1.102-1.102a.5.5 0 1 0 0-1.002c-1.16 0-2.104.944-2.104 2.104s.944 2.104 2.104 2.104 2.104-.944 2.104-2.104a.5.5 0 0 0-.501-.501z"/>
      <path fill="#086cf9" style="fill:var(--color1, #086cf9)" d="M22.681 0H4.51c-.866 0-1.57.704-1.57 1.57v22.447c0 .866.704 1.57 1.57 1.57h9.086a.5.5 0 1 0 0-1.002H4.51a.569.569 0 0 1-.568-.568V1.57c0-.313.255-.568.568-.568h18.171c.313 0 .568.255.568.568v16.568a.5.5 0 1 0 1.002 0V1.57c0-.866-.704-1.57-1.57-1.57z"/>
      <path fill="#086cf9" style="fill:var(--color1, #086cf9)" d="M27.411 20.318a1.852 1.852 0 0 0-1.299.365 1.826 1.826 0 0 0-1.373-.9 1.856 1.856 0 0 0-1.3.365 1.826 1.826 0 0 0-1.373-.9 1.845 1.845 0 0 0-1.023.192v-6.381a1.836 1.836 0 0 0-2.025-1.827c-.925.093-1.649.929-1.649 1.904v6.397l-1.473 1.473a3.152 3.152 0 0 0-.845 2.971l1.118 4.752A4.226 4.226 0 0 0 20.298 32h4.519a4.247 4.247 0 0 0 4.242-4.242v-5.535c0-.975-.724-1.812-1.649-1.904zm.647 7.44a3.244 3.244 0 0 1-3.24 3.24h-4.519a3.227 3.227 0 0 1-3.154-2.498l-1.118-4.752a2.161 2.161 0 0 1 .578-2.033l.764-.764v1.73a.5.5 0 1 0 1.002 0v-9.544c0-.467.328-.865.747-.907a.831.831 0 0 1 .923.831v8.818a.5.5 0 1 0 1.002 0v-.802a.834.834 0 0 1 .923-.83c.419.042.747.44.747.907v1.26a.5.5 0 1 0 1.002 0v-.802a.838.838 0 0 1 .923-.831c.419.042.747.44.747.907v1.26a.5.5 0 1 0 1.002 0v-.802a.836.836 0 0 1 .923-.83c.419.042.747.44.747.907v5.536z"/>
    </symbol>
    <symbol id="icon-Vector4" viewBox="0 0 32 32">
      <path fill="#086cf9" style="fill:var(--color1, #086cf9)" d="M5.628 24.747a2.61 2.61 0 0 0-1.261.322A14.774 14.774 0 0 1 1.25 16C1.25 7.867 7.867 1.25 16 1.25c.989 0 1.977.098 2.938.292a.624.624 0 1 0 .247-1.226A16.152 16.152 0 0 0 16-.001c-4.274 0-8.292 1.664-11.314 4.686S0 11.725 0 15.999c0 3.595 1.221 7.103 3.443 9.916a2.61 2.61 0 0 0-.44 1.456c0 .701.273 1.36.769 1.856s1.155.769 1.856.769c.701 0 1.36-.273 1.856-.769s.769-1.155.769-1.856c0-.701-.273-1.36-.769-1.856s-1.155-.769-1.856-.769zm.972 3.597c-.26.26-.605.403-.972.403s-.712-.143-.972-.403-.403-.605-.403-.972.143-.713.403-.972a1.37 1.37 0 0 1 1.944 0c.26.26.403.605.403.972s-.143.712-.403.972zM28.556 6.083a2.632 2.632 0 0 0-.328-3.312c-.496-.496-1.155-.769-1.856-.769s-1.36.273-1.856.769-.769 1.155-.769 1.856.273 1.36.769 1.856a2.607 2.607 0 0 0 1.856.769 2.61 2.61 0 0 0 1.261-.322 14.774 14.774 0 0 1 3.117 9.069c0 8.133-6.617 14.75-14.75 14.75-.979 0-1.958-.096-2.909-.287a.626.626 0 0 0-.246 1.226c1.032.206 2.094.311 3.155.311 4.274 0 8.292-1.664 11.314-4.686S32 20.273 32 15.999c0-3.595-1.221-7.104-3.444-9.917zm-3.157-.482c-.26-.26-.403-.605-.403-.972s.143-.712.403-.972.605-.403.972-.403.713.143.972.403a1.377 1.377 0 0 1-.972 2.348c-.367 0-.713-.143-.972-.403z"/>
      <path fill="#086cf9" style="fill:var(--color1, #086cf9)" d="M13.421 26.75c0 .345.28.625.625.625h3.908c.345 0 .625-.28.625-.625v-1.212a9.801 9.801 0 0 0 2.346-.972l.855.855a.625.625 0 0 0 .884 0l2.762-2.764a.625.625 0 0 0 0-.884l-.855-.854a9.785 9.785 0 0 0 .972-2.346h1.207c.345 0 .625-.28.625-.625V14.04a.625.625 0 0 0-.625-.625h-1.207a9.777 9.777 0 0 0-.972-2.345l.85-.85a.625.625 0 0 0 0-.884l-2.764-2.762a.625.625 0 0 0-.884 0l-.849.849a9.785 9.785 0 0 0-2.346-.972v-1.2a.625.625 0 0 0-.625-.625h-3.908a.625.625 0 0 0-.625.625v1.201a9.777 9.777 0 0 0-2.345.972l-.849-.849a.625.625 0 0 0-.884 0L6.578 9.337a.625.625 0 0 0 0 .884l.85.85a9.794 9.794 0 0 0-.972 2.345H5.251a.625.625 0 0 0-.625.625l-.002 3.908a.625.625 0 0 0 .625.625h1.207c.221.822.547 1.607.972 2.346l-.855.854a.625.625 0 0 0 0 .884l2.762 2.764a.625.625 0 0 0 .884 0l.855-.855a9.801 9.801 0 0 0 2.346.972v1.212zm-2.101-3.498a.625.625 0 0 0-.781.083l-.761.761-1.879-1.88.76-.76a.625.625 0 0 0 .083-.781 8.553 8.553 0 0 1-1.184-2.857.625.625 0 0 0-.611-.494H5.874l.001-2.658h1.072a.625.625 0 0 0 .611-.494 8.553 8.553 0 0 1 1.184-2.857.625.625 0 0 0-.083-.781l-.755-.756 1.88-1.879.755.755a.625.625 0 0 0 .781.083 8.553 8.553 0 0 1 2.857-1.184.626.626 0 0 0 .494-.611V5.875h2.658v1.067c0 .295.206.549.494.611a8.553 8.553 0 0 1 2.857 1.184c.247.16.573.125.781-.083l.755-.755 1.88 1.879-.755.755a.625.625 0 0 0-.083.781 8.553 8.553 0 0 1 1.184 2.857.625.625 0 0 0 .611.494h1.074v2.658h-1.074a.625.625 0 0 0-.611.494 8.553 8.553 0 0 1-1.184 2.857.625.625 0 0 0 .083.781l.76.76-1.879 1.88-.761-.761a.625.625 0 0 0-.781-.083 8.553 8.553 0 0 1-2.857 1.184.625.625 0 0 0-.494.611v1.078h-2.658v-1.078a.626.626 0 0 0-.494-.611 8.553 8.553 0 0 1-2.857-1.184z"/>
      <path fill="#086cf9" style="fill:var(--color1, #086cf9)" d="M21.164 16c0-2.848-2.317-5.164-5.164-5.164S10.836 13.153 10.836 16c0 2.848 2.317 5.164 5.164 5.164s5.164-2.317 5.164-5.164zm-9.078 0c0-2.158 1.756-3.914 3.914-3.914s3.914 1.756 3.914 3.914c0 2.158-1.756 3.914-3.914 3.914S12.086 18.158 12.086 16zM21.755 2.364c.165 0 .326-.067.442-.183s.183-.278.183-.443a.625.625 0 1 0-.625.626zM10.272 29.648c-.164 0-.326.067-.442.183s-.183.278-.183.442c0 .165.067.326.183.442s.278.183.442.183c.164 0 .326-.067.442-.183s.183-.278.183-.442c0-.164-.067-.326-.183-.442s-.278-.183-.442-.183z"/>
    </symbol>
  </defs>
</svg>
